<svg xmlns="http://www.w3.org/2000/svg" viewBox="0 0 64 64" role="img" aria-label="Breakfast Check-in">
  <defs>
    <linearGradient id="bg" x1="12" y1="4" x2="52" y2="60" gradientUnits="userSpaceOnUse">
      <stop stop-color="#1E3A8A"/>
      <stop offset="1" stop-color="#2563EB"/>
    </linearGradient>
  </defs>
  <rect width="64" height="64" rx="14" fill="url(#bg)"/>
  <!-- steam -->
  <path d="M26 14c0 3 2.5 3 2.5 6s-2.5 3-2.5 6" fill="none" stroke="#93C5FD" stroke-width="2.2" stroke-linecap="round" opacity=".9"/>
  <path d="M32.5 12c0 3 2.5 3 2.5 6s-2.5 3-2.5 6" fill="none" stroke="#BFDBFE" stroke-width="2.2" stroke-linecap="round" opacity=".85"/>
  <path d="M39 14c0 3 2.5 3 2.5 6s-2.5 3-2.5 6" fill="none" stroke="#93C5FD" stroke-width="2.2" stroke-linecap="round" opacity=".9"/>
  <!-- cup -->
  <path d="M18 30h24a2 2 0 0 1 2 2v10c0 6.627-5.373 12-12 12h-4c-6.627 0-12-5.373-12-12V32a2 2 0 0 1 2-2z" fill="#F8FAFC"/>
  <path d="M44 34h3.5a5.5 5.5 0 0 1 0 11H44" fill="none" stroke="#F8FAFC" stroke-width="3.5" stroke-linecap="round"/>
  <!-- saucer -->
  <path d="M16 54h32" fill="none" stroke="#BFDBFE" stroke-width="3" stroke-linecap="round"/>
  <!-- coffee surface -->
  <ellipse cx="30" cy="34" rx="10" ry="3.2" fill="#1E293B" opacity=".35"/>
</svg>
