<?xml version="1.0" encoding="UTF-8"?><svg id="Artwork" xmlns="http://www.w3.org/2000/svg" viewBox="0 0 576 364"><defs><style>.cls-1{fill:#fff;stroke-width:0px;}</style></defs><path class="cls-1" d="M200.49,213.01c-2.5,0-5,0-7.5.1l.05-1.51c.73,0,3.34.1,3.34-1.09,0-.94-1.3-2.03-1.88-2.71-2.5-2.76-5-5.42-7.5-8.18-.57-.62-1.93-2.34-2.76-2.55-.16-.05-.31-.05-.47-.05-.47,0-.94,0-1.41.05v10.47c0,.88,0,1.93.52,2.66.88,1.2,3.07,1.3,4.48,1.41v1.51c-2.87-.05-5.78-.1-8.65-.1-2.09,0-4.22,0-6.31.1v-1.51c1.25-.16,3.49,0,4.33-1.09.68-.89.52-3.65.52-4.79.05-4.27.1-8.55.1-12.82,0-1.98.26-10.32-.68-11.46-.83-.99-3.34-.83-4.53-.99v-1.51h15.27v1.51c-1.3.1-3.13-.21-4.22.63-1.04.78-.73,3.65-.78,4.85,0,.73-.05,1.62-.05,2.35,0,2.45.05,4.9.05,7.35h.36c2.5,0,4.17-2.34,5.73-4.06,1.51-1.67,7.19-7.55,7.19-9.54,0-1.51-2.71-1.41-3.75-1.56v-1.51h13.45v1.51c-4.64.26-4.53.63-7.71,3.7-1.61,1.56-3.13,3.39-4.69,5-1.56,1.62-2.97,3.39-4.53,5.06,1.77,1.72,3.44,3.65,5.11,5.47,2.29,2.45,4.58,4.9,6.88,7.35.83.89,3.07,3.23,4.01,3.8.94.57,1.62.63,2.71.78v1.51c-2.24-.1-4.43-.1-6.67-.1Z"/><path class="cls-1" d="M219.33,213.79c-5.89,0-10.47-5.37-10.47-11.05,0-3.65,1.15-7.3,3.75-9.9,1.77-1.77,4.48-3.02,7.04-3.02,4.69,0,8.49,3.34,8.75,8.08-5.11.21-10.16.42-15.27.42-.1.52-.1,1.04-.1,1.56v.78c0,5,3.55,9.53,8.81,9.53,2.35,0,4.74-1.72,6.25-3.39l.78.68c-1.82,3.23-5.68,6.31-9.54,6.31ZM222.93,193.47c-.88-1.67-2.4-2.34-4.22-2.34-3.08,0-4.85,3.34-5.32,5.99,3.49-.05,6.88-.21,10.32-.83,0-.94-.31-1.98-.78-2.81Z"/><path class="cls-1" d="M260.11,213.11v-1.3c.99,0,3.18-.16,3.86-.99.57-.73.52-2.14.57-3.02.1-2.29.31-4.59.31-6.88,0-1.82-.1-3.75-.78-5.47-.68-1.67-2.97-2.55-4.64-2.55-2.03,0-3.8.88-5.42,2.03.1.62.1,1.3.1,1.93,0,4.12-.05,8.23-.05,12.35,0,.52.05,1.09.31,1.56.47.94,2.71.99,3.6,1.04v1.3h-12.3v-1.3c.94-.05,3.39-.1,3.86-1.09.42-.94.42-5.47.42-6.72,0-1.62,0-3.23-.05-4.85-.05-1.3,0-2.66-.42-3.91-.57-1.67-2.97-2.61-4.64-2.61-2.14,0-3.75.88-5.47,2.03-.16.1-.26.16-.26.42v13.44c0,.57,0,1.67.31,2.19.62,1.09,2.76,1.04,3.85,1.15v1.25h-12.35v-1.3c3.18-.21,3.86,0,3.86-3.44,0-4.85-.05-9.64-.05-14.49-1.15-.57-2.34-1.2-3.54-1.56v-.68l7.92-2.97v5c1.09-.63,2.03-1.51,3.07-2.19,1.82-1.2,3.44-2.24,5.68-2.24,1.77,0,3.91,1.41,4.85,2.87.42.63.73,1.3.99,1.98,2.81-2.03,4.85-4.64,8.65-4.64,1.88,0,3.8,1.51,4.9,2.92,1.61,2.09,1.93,4.59,1.93,7.14,0,3.13-.42,6.31-.42,9.43s1.46,2.55,3.96,2.87v1.3h-12.61Z"/><path class="cls-1" d="M285.18,212.91l-1.36.05c-.68.05-1.36,0-2.03-.1-.05,1.82-.05,3.65-.05,5.47,0,1.3-.05,2.66.05,3.91.21,2.5,2.71,1.88,4.43,2.19v1.3h-12.71v-1.25c1.88-.16,4.06-.21,4.06-2.66v-27.93c-1.09-.62-2.34-1.15-3.54-1.56v-.68c2.55-1.04,5.06-2.08,7.66-2.97v.94c0,1.15.05,2.19.05,3.34,2.09-1.25,4.69-3.28,7.19-3.28,2.97,0,5.94,1.67,7.82,3.91,1.41,1.67,2.4,4.79,2.4,6.93,0,7.35-7.09,12.14-13.96,12.4ZM289.24,193.31c-.83-.36-1.98-.68-2.87-.68-1.82,0-3.18.68-4.64,1.67v13.5c1.25,2.19,3.44,3.65,5.99,3.65.99,0,1.88-.31,2.71-.78,3.08-1.82,4.27-5.47,4.27-8.86,0-3.91-1.88-6.98-5.47-8.49Z"/><path class="cls-1" d="M308.94,213.01h-2.14c-1.98,0-3.85.05-5.84.1v-1.3c4.01-.36,4.17-.36,4.17-4.59v-12.35c0-.16,0-.36-.15-.47-.68-.36-2.71-1.25-3.49-1.61v-.52l7.92-3.13v18.34c0,4.01.36,3.96,4.22,4.33v1.3c-1.56-.05-3.13-.1-4.69-.1ZM307.06,185.08c-1.46,0-2.71-1.15-2.71-2.66s1.25-2.66,2.71-2.66,2.71,1.15,2.71,2.66-1.25,2.66-2.71,2.66Z"/><path class="cls-1" d="M331.1,213.11v-1.3c.99,0,3.23-.16,3.91-.99.57-.73.52-2.14.57-3.02.1-2.4.26-4.74.26-7.14,0-1.82-.05-3.75-.78-5.47-.68-1.67-2.97-2.55-4.64-2.55-1.93,0-3.96.88-5.42,2.14-.26.21-.26.36-.26.68-.21,4.17,0,8.44,0,12.61,0,3.6,1.04,3.34,4.06,3.75v1.3h-12.4v-1.3c1.2-.1,3.34-.05,3.8-1.51.21-.73.16-5.68.16-6.67v-9.75c-1.15-.62-2.35-1.04-3.55-1.56v-.68l7.92-2.97v5c1.09-.63,2.03-1.61,3.07-2.29,1.82-1.2,3.44-2.14,5.63-2.14,1.77,0,3.75,1.51,4.79,2.87,1.61,2.09,1.93,4.59,1.93,7.14,0,3.23-.42,6.46-.42,9.69s1.46,2.55,3.96,2.87v1.3h-12.61Z"/><path class="cls-1" d="M359.49,211.76c-1.51,1.36-4.01,2.03-5.99,2.03s-3.86-.31-5.73-.78c-.26-1.93-.57-3.91-.83-5.84l1.41-.31c1.25,2.35,2.19,5.68,5.42,5.68,2.14,0,4.22-1.36,4.22-3.65,0-6.36-10.79-5.52-10.79-12.82,0-3.91,3.85-6.36,7.45-6.36,1.56,0,2.92.31,4.43.63.1,0,.26.05.36.05.42,0,.83-.16,1.2-.31.36,1.93.68,3.91.88,5.89l-1.3.31c-1.04-2.4-2.76-5.31-5.73-5.31-2.29,0-3.8,1.3-3.8,3.65,0,2.19,1.36,2.92,2.97,3.96,3.34,2.24,7.97,3.6,7.97,8.49,0,1.51-1.04,3.65-2.14,4.69Z"/><path class="cls-1" d="M364.34,213.11v-1.3c1.04-.05,3.13.21,3.44-1.09.26-1.09.26-2.45.26-3.6.1-6.93.16-13.76.16-20.69,0-2.5-.05-4.95-.05-7.45-1.09-.57-2.08-1.25-3.23-1.67v-.36c2.5-1.15,5.06-2.24,7.61-3.39v.52c0,3.07-.1,6.1-.15,9.17-.11,7.24-.21,14.54-.21,21.78v3.44c0,3.34.89,3.28,3.75,3.44v1.2h-11.57ZM378.25,213.11v-1.2c.78,0,2.87.05,2.87-1.09,0-.83-5.84-6.82-6.88-7.82-.68-.63-1.36-1.2-2.03-1.82,2.14-1.3,4.22-2.97,5.99-4.74.57-.57,2.66-2.66,2.66-3.44,0-1.09-2.14-1.25-2.87-1.3v-1.3h10.79v1.3c-2.5.15-4.06.99-6.04,2.55-2.19,1.72-4.27,3.6-6.41,5.37,2.66,2.87,5.26,5.73,8.03,8.49.99.99,2.03,2.14,3.13,3.07.73.57,1.51.63,2.4.63v1.3h-11.62Z"/><path class="cls-1" d="M400.39,213.01h-2.14c-1.98,0-3.85.05-5.84.1v-1.3c4.01-.36,4.17-.36,4.17-4.59v-12.35c0-.16,0-.36-.15-.47-.68-.36-2.71-1.25-3.49-1.61v-.52l7.92-3.13v18.34c0,4.01.36,3.96,4.22,4.33v1.3c-1.56-.05-3.13-.1-4.69-.1ZM398.52,185.08c-1.46,0-2.71-1.15-2.71-2.66s1.25-2.66,2.71-2.66,2.71,1.15,2.71,2.66-1.25,2.66-2.71,2.66Z"/><path class="cls-1" d="M150.67,270.02c-.78-.26-1.62-.42-2.4-.42-1.46,0-2.87.47-4.33.73-1.3.26-2.66.36-4.01.36-10.42,0-19.23-7.09-19.23-17.92,0-3.13,1.04-6.67,2.76-9.28,3.54-5.47,9.9-8.55,16.36-8.55,2.71,0,5.26.52,7.82,1.35.99.31,2.24.89,3.28.89.57,0,1.15-.16,1.51-.68l.68.31.26,9.8-1.51.1c-1.62-5.99-5-10.01-11.57-10.01-8.55,0-13.13,8.34-13.13,16,0,8.13,4.74,16.26,13.71,16.26,5.99,0,9.22-4.33,12.45-8.7l1.25.57c-1.2,3.07-2.45,6.15-3.91,9.17Z"/><path class="cls-1" d="M169.6,270.59c-5.89,0-10.47-5.37-10.47-11.05,0-3.65,1.15-7.3,3.75-9.9,1.77-1.77,4.48-3.02,7.04-3.02,4.69,0,8.49,3.34,8.75,8.08-5.11.21-10.16.42-15.27.42-.1.52-.1,1.04-.1,1.56v.78c0,5,3.54,9.53,8.81,9.53,2.35,0,4.74-1.72,6.25-3.39l.78.68c-1.82,3.23-5.68,6.31-9.54,6.31ZM173.2,250.27c-.88-1.67-2.4-2.34-4.22-2.34-3.08,0-4.85,3.34-5.32,5.99,3.49-.05,6.88-.21,10.32-.83,0-.94-.31-1.98-.78-2.81Z"/><path class="cls-1" d="M195.89,269.91v-1.3c.99,0,3.23-.16,3.91-.99.57-.73.52-2.14.57-3.02.1-2.4.26-4.74.26-7.14,0-1.82-.05-3.75-.78-5.47-.68-1.67-2.97-2.55-4.64-2.55-1.93,0-3.96.88-5.42,2.14-.26.21-.26.36-.26.68-.21,4.17,0,8.44,0,12.61,0,3.6,1.04,3.34,4.06,3.75v1.3h-12.4v-1.3c1.2-.1,3.34-.05,3.8-1.51.21-.73.16-5.68.16-6.67v-9.75c-1.15-.62-2.35-1.04-3.55-1.56v-.68l7.92-2.97v5c1.09-.63,2.03-1.61,3.07-2.29,1.82-1.2,3.44-2.14,5.63-2.14,1.77,0,3.75,1.51,4.79,2.87,1.61,2.09,1.93,4.59,1.93,7.14,0,3.23-.42,6.46-.42,9.69s1.46,2.55,3.96,2.87v1.3h-12.61Z"/><path class="cls-1" d="M224.81,249.64h-7.3v13.44c0,2.55.83,4.74,3.75,4.74,1.51,0,2.81-.52,3.96-1.46l.52.83c-1.93,2.03-4.53,3.39-7.35,3.39-3.8,0-5.42-2.34-5.42-5.89,0-4.95.21-10.11.26-15.06h-3.13l-.1-.36c2.55-2.24,5.06-4.48,7.66-6.67v4.59c2.24.05,4.43,0,6.67,0h1.51l-1.04,2.45Z"/><path class="cls-1" d="M244.6,252.14c-1.09-.57-3.08-1.77-4.33-1.77-1.88,0-3.75,2.03-3.75,3.91v11.15c0,.68.1,1.35.47,1.93.68,1.04,3.44,1.15,4.59,1.25v1.3h-13.39v-1.3c1.98-.1,4.01-.05,4.01-2.66v-15.06c-1.15-.57-2.35-1.15-3.55-1.56v-.68c2.55-.99,5.26-1.88,7.82-2.86v5.52c.68-.78,1.35-1.51,2.03-2.29,1.2-1.35,2.5-2.71,4.43-2.71,1.2,0,2.92,1.3,3.54,2.29-.57,1.2-1.2,2.4-1.88,3.54Z"/><path class="cls-1" d="M263.92,270.49c-1.46,0-2.19-2.4-2.61-3.49-2.09,1.09-6.83,3.55-9.17,3.55s-2.66-2.97-2.66-4.74c0-2.45.26-3.86,2.66-4.95,2.55-1.2,6.36-1.98,9.17-2.92,0,0,.05-2.82.05-3.8,0-2.71-.78-5.26-4.69-5.26-2.03,0-2.87.78-3.34,1.67-.26.42-.36,1.82-.42,3.13l-4.17-.05c-.16-.89.31-1.46.73-1.88,1.15-1.2,4.33-3.49,5.78-4.33,1.09-.63,2.66-1.36,3.96-1.36,4.38,0,6.25,3.96,6.25,6.67v10.63c0,1.36-.31,3.7,1.67,3.7.78,0,1.82-.57,2.5-.94l.47.78c-1.2.99-4.74,3.6-6.2,3.6ZM261.31,259.23c-1.93.47-6.25,1.41-7.5,3.18-.42.57-.63,1.36-.63,2.03,0,1.56,1.51,3.28,3.13,3.28s3.65-1.25,5-2.03v-6.46Z"/><path class="cls-1" d="M271.99,269.91v-1.3c1.09-.1,3.18.05,3.75-1.15.36-.83.31-3.02.31-4.01,0-7.97.11-15.95.11-23.92,0-1.3,0-2.61-.11-3.91-1.04-.47-2.08-1.04-3.13-1.51v-.36c2.55-1.04,5.05-2.24,7.61-3.39v.52c0,10.63-.31,21.31-.31,31.94,0,.88,0,3.85.31,4.58.57,1.25,3.13,1.15,4.32,1.2v1.3h-12.87Z"/><path class="cls-1" d="M317.86,269.91v-1.51c2.14,0,4.27-.16,5.06-1.88.26-.52.1-1.72-.21-2.97-.62-2.29-1.61-5.42-2.71-8.65h-10.01c-.94,2.4-1.67,4.59-2.45,6.83-.63,1.77-1.09,3.49-1.04,4.43.11,2.24,3.08,2.03,4.74,2.24v1.51h-12.19v-1.51c1.77-.1,2.29-.42,2.81-1.04.31-.47,1.04-.88,2.71-4.64,2.66-6.04,5.99-14.9,8.91-22.2.52-1.3.83-2.14.83-3.65,1.67-.99,2.92-1.88,3.96-3.49h.26c3.39,10.79,5.89,18.76,8.6,27.05.63,1.98,1.41,4.06,2.19,5.68.26.57,1.56,2.19,4.69,2.29v1.51h-16.16ZM315.46,240.11c-.73,1.72-2.14,5.68-4.79,12.98h8.86c-1.82-5.73-3.02-10.06-4.06-12.98Z"/><path class="cls-1" d="M352.65,252.14c-2.19,4.27-4.22,8.65-6.25,12.98-.83,1.77-1.46,3.6-1.98,5.47l-1.3.1c-.47-2.29-1.61-4.43-2.45-6.62-1.25-3.28-2.61-6.46-3.91-9.69-.62-1.56-1.25-3.28-2.08-4.74-.57-.99-1.67-1.09-2.71-1.15v-1.3h11.62v1.25c-1.2.16-3.75,0-3.75,1.82,0,.89,3.28,9.12,3.8,10.42.52,1.3.99,2.66,1.51,3.96.99-1.72,5.99-12.77,5.99-14.17,0-1.77-2.61-1.93-3.86-2.03v-1.25h9.59v1.3c-2.24,0-3.34,1.88-4.22,3.65Z"/><path class="cls-1" d="M368.19,270.59c-5.89,0-10.47-5.37-10.47-11.05,0-3.65,1.15-7.3,3.75-9.9,1.77-1.77,4.48-3.02,7.04-3.02,4.69,0,8.49,3.34,8.75,8.08-5.11.21-10.16.42-15.27.42-.1.52-.1,1.04-.1,1.56v.78c0,5,3.54,9.53,8.81,9.53,2.35,0,4.74-1.72,6.25-3.39l.78.68c-1.82,3.23-5.68,6.31-9.54,6.31ZM371.79,250.27c-.88-1.67-2.4-2.34-4.22-2.34-3.08,0-4.85,3.34-5.32,5.99,3.49-.05,6.88-.21,10.32-.83,0-.94-.31-1.98-.78-2.81Z"/><path class="cls-1" d="M394.48,269.91v-1.3c.99,0,3.23-.16,3.91-.99.57-.73.52-2.14.57-3.02.1-2.4.26-4.74.26-7.14,0-1.82-.05-3.75-.78-5.47-.68-1.67-2.97-2.55-4.64-2.55-1.93,0-3.96.88-5.42,2.14-.26.21-.26.36-.26.68-.21,4.17,0,8.44,0,12.61,0,3.6,1.04,3.34,4.06,3.75v1.3h-12.4v-1.3c1.2-.1,3.34-.05,3.8-1.51.21-.73.16-5.68.16-6.67v-9.75c-1.15-.62-2.35-1.04-3.55-1.56v-.68l7.92-2.97v5c1.09-.63,2.03-1.61,3.07-2.29,1.82-1.2,3.44-2.14,5.63-2.14,1.77,0,3.75,1.51,4.79,2.87,1.61,2.09,1.93,4.59,1.93,7.14,0,3.23-.42,6.46-.42,9.69s1.46,2.55,3.96,2.87v1.3h-12.61Z"/><path class="cls-1" d="M426.73,270.85l-.26-.21c-.05-1.04-.21-2.14-.21-3.18,0-.21-.05-.31-.21-.47-.05,0-.05-.05-.1-.05-.47,0-4.95,3.7-8.13,3.7-5.99,0-6.31-6.57-6.31-11,0-2.76.21-5.52.21-8.28,0-2.5-1.51-2.19-3.39-2.61v-1.04c2.55-.42,5.11-.68,7.66-.94,0,5.21.05,10.37.05,15.58,0,3.18.78,5.58,4.43,5.58,1.82,0,4.53-1.56,5.73-2.92.05-4.58.11-9.17.11-13.76,0-.52,0-.78-.36-1.2-.47-.47-3.13-1.04-3.91-1.2v-.94c2.82-.36,5.63-.63,8.44-.89,0,6.1-.1,12.19-.1,18.29,0,.52.05,1.04.1,1.56.89.42,2.66.52,3.7.68v.94l-7.45,2.34Z"/><path class="cls-1" d="M446.98,270.59c-5.89,0-10.47-5.37-10.47-11.05,0-3.65,1.15-7.3,3.75-9.9,1.77-1.77,4.48-3.02,7.04-3.02,4.69,0,8.49,3.34,8.75,8.08-5.11.21-10.16.42-15.27.42-.1.52-.1,1.04-.1,1.56v.78c0,5,3.54,9.53,8.81,9.53,2.35,0,4.74-1.72,6.25-3.39l.78.68c-1.82,3.23-5.68,6.31-9.54,6.31ZM450.57,250.27c-.88-1.67-2.4-2.34-4.22-2.34-3.08,0-4.85,3.34-5.32,5.99,3.49-.05,6.88-.21,10.32-.83,0-.94-.31-1.98-.78-2.81Z"/><path class="cls-1" d="M262.54,336.17c0,5.31-4.43,7.66-8.45,7.66h-5.45v-15.32h5.45c4.04,0,8.45,2.02,8.45,7.66ZM259.45,336.17c0-4.23-3.02-5.11-5.8-5.11h-2.17v10.21h2.17c2.82,0,5.8-1.16,5.8-5.1Z"/><path class="cls-1" d="M274.68,344.21c-3.53,0-6.19-2.25-6.19-6.04v-9.66h2.86v9.56c0,1.57.78,3.51,3.33,3.51s3.31-1.96,3.31-3.51v-9.56h2.86v9.66c0,3.84-2.8,6.04-6.17,6.04Z"/><path class="cls-1" d="M293.41,328.53c2.02.02,2.57.04,3.31.24,1.53.47,2.69,1.84,2.69,3.49,0,1.41-.77,2.9-2.57,3.17,1.7.31,3.27,1.7,3.27,4.04,0,1.76-.86,3.31-2.73,3.96-.96.37-1.72.39-3.45.39h-5.98v-15.29h5.47ZM290.8,334.59h2.96c1.82,0,2.7-.55,2.7-1.68,0-1.41-1.1-1.9-2.74-1.9h-2.92v3.57ZM290.8,341.33h3.71c1.67,0,2.65-.59,2.65-2.1,0-1.41-.98-2.35-3.27-2.35h-3.1v4.45Z"/><path class="cls-1" d="M304.49,343.82l6.51-15.32h2.72l6.45,15.32h-3.27l-1.35-3.47h-6.53l-1.35,3.47h-3.18ZM309.98,337.9h4.61l-2.31-5.88-2.31,5.88Z"/><path class="cls-1" d="M325.73,328.51h2.86v15.32h-2.86v-15.32Z"/><rect class="cls-1" x="197.8" y="302.97" width="181.63" height="2.17"/><path class="cls-1" d="M313.01,67.1h0s0,72.1,0,72.1h38.67v-41.2l-38.67-30.9ZM348.52,136.04h-21.14c-.71-1.5-1.13-3.16-1.13-4.92,0-6.34,5.15-11.49,11.49-11.49,4.94,0,9.16,3.15,10.77,7.54v8.87ZM345.98,120.24c-.89-.68-1.87-1.25-2.91-1.69,1.04-.44,2.02-1.01,2.91-1.69-.07.55-.11,1.11-.11,1.69s.04,1.14.11,1.69ZM338.59,112.01l1.12-1.12h1.78v2.29l2.46,2.46c-1.09.7-2.3,1.22-3.6,1.52v-3.4l-1.76-1.76ZM324.21,132.82c-.89-.68-1.87-1.25-2.92-1.7,1.05-.45,2.03-1.02,2.92-1.7-.07.56-.11,1.12-.11,1.7s.04,1.14.11,1.7ZM318.56,136.04v-3.55c1.3.31,2.53.83,3.62,1.54l-2.01,2.01h-1.61ZM316.17,130.02v-22.95c6.24.11,11.28,5.21,11.28,11.48s-5.04,11.37-11.28,11.48ZM318.56,75.57l3.21,2.57c-.99.59-2.06,1.05-3.21,1.32v-3.89ZM317.38,76.54v3.12c-.4.05-.8.07-1.21.08v-4.41l1.21,1.21ZM316.17,81.93c6.24.11,11.28,5.21,11.28,11.48s-5.04,11.37-11.28,11.48v-22.95ZM329.5,91.71c.89.68,1.87,1.25,2.92,1.7-1.05.44-2.03,1.02-2.92,1.7.07-.56.11-1.12.11-1.7s-.04-1.14-.11-1.7ZM336.93,99.94l-1.12,1.12h-1.8v-2.26l-2.47-2.47c1.1-.71,2.32-1.24,3.63-1.54v3.4l1.76,1.76ZM348.52,103.4h-2.98l-1.76,1.76-1.12-1.12v-1.8h2.28l2.46-2.46c.46.72.82,1.51,1.11,2.33v1.29ZM339.47,107.33l2.02.77v1.62h-1.62l-.77-2.01.37-.37ZM339.1,104.28l.78-2.04h1.61v1.64l-2.02.77-.37-.37ZM339.92,106.24v-.5l2.01-.77,1.02,1.02-1.02,1.02-2.01-.77ZM344.46,101.06h-1.8v-1.78l2.26-2.27c.66.53,1.26,1.13,1.79,1.79l-2.26,2.26ZM341.49,98.8v2.26h-1.78l-1.12-1.12,1.76-1.76v-3.4c1.3.3,2.52.83,3.62,1.54l-2.48,2.47ZM337.5,108.14h.5l.77,2.02-1.02,1.02-1.02-1.02.77-2.02ZM336.76,106.4v-.81l.58-.57h.83l.57.57v.82l-.57.57h-.83l-.58-.57ZM338.01,103.84h-.5l-.78-2.04,1.03-1.03,1.03,1.03-.78,2.04ZM339.17,97.7l-1.41,1.42-1.42-1.42v-3.12c.46-.06.93-.09,1.41-.09s.95.04,1.42.09v3.12ZM334.01,108.1l2.02-.77.39.38-.77,2.01h-1.64v-1.62ZM333.57,107.01l-1.02-1.02,1.02-1.02,2.02.77v.5l-2.02.77ZM336.03,104.65l-2.02-.77v-1.64h1.63l.78,2.04-.39.38ZM330.57,97.02l2.26,2.27v1.78h-1.78l-2.26-2.26c.53-.65,1.12-1.25,1.78-1.78ZM330.57,102.24h2.27v1.8l-1.12,1.12-1.76-1.76h-3.4c.3-1.31.83-2.54,1.54-3.63l2.47,2.47ZM330.88,105.99l-1.41,1.42h-3.12c-.06-.47-.09-.94-.09-1.43s.03-.94.09-1.4h3.12l1.41,1.41ZM324.21,107.68c-.89-.68-1.87-1.25-2.92-1.7,1.05-.44,2.03-1.02,2.92-1.7-.07.56-.11,1.12-.11,1.7s.04,1.14.11,1.7ZM326.56,108.58h3.4l1.76-1.76,1.12,1.12v1.78h-2.27l-2.47,2.47c-.7-1.09-1.23-2.31-1.53-3.61ZM331.05,110.89h1.78v1.8l-2.25,2.25c-.66-.53-1.26-1.13-1.79-1.79l2.26-2.26ZM329.5,116.85c.89.68,1.87,1.25,2.92,1.7-1.05.45-2.03,1.02-2.92,1.7.07-.56.11-1.12.11-1.7s-.04-1.14-.11-1.7ZM331.55,115.64l2.46-2.46v-2.29h1.8l1.12,1.12-1.76,1.76v3.4c-1.3-.3-2.52-.82-3.62-1.53ZM336.34,114.25l1.42-1.41,1.41,1.41v3.12c-.47.06-.94.09-1.42.09s-.95-.03-1.41-.09v-3.12ZM344.91,114.95l-2.25-2.25v-1.8h1.8l2.26,2.25c-.53.66-1.14,1.27-1.8,1.8ZM344.95,109.71h-2.28v-1.78l1.12-1.12,1.76,1.76h2.98v1.26c-.3.82-.65,1.62-1.11,2.34l-2.46-2.46ZM346.03,107.4l-1.41-1.42,1.41-1.41h2.5v2.83h-2.5ZM337.75,92.33c-6.02,0-10.97-4.66-11.44-10.56l13.05,10.43c-.53.07-1.06.13-1.61.13ZM324.21,82.54c-.89-.68-1.87-1.25-2.92-1.7.81-.34,1.56-.78,2.28-1.27l.59.47c-.02.27-.05.53-.05.8,0,.57.04,1.14.11,1.7ZM316.17,136.04v-3.83c.41,0,.82.03,1.21.08v3.12l-.63.64h-.58ZM321.83,136.04l1.31-1.32c.48.39.9.85,1.32,1.32h-2.63ZM348.52,121.82c-.31-1.04-.48-2.14-.48-3.28s.17-2.24.48-3.28v6.55Z"/><path class="cls-1" d="M268.05,49.59v89.61h38.67s0-118.99,0-118.99l-38.67,29.38ZM282.69,131.12c0-6.34,5.15-11.49,11.49-11.49,3.88,0,7.3,1.93,9.38,4.88v11.53h-19.75c-.71-1.5-1.13-3.16-1.13-4.92ZM296.32,32.07l1.6.61v1.62h-1.62l-.66-1.71.68-.51ZM302.42,120.24c-.89-.68-1.87-1.25-2.91-1.69,1.04-.44,2.02-1.01,2.91-1.69-.07.55-.11,1.11-.11,1.69s.04,1.14.11,1.69ZM295.02,112.01l1.12-1.12h1.78v2.29l2.46,2.46c-1.09.7-2.3,1.22-3.6,1.52v-3.4l-1.76-1.76ZM285.94,116.85c.89.68,1.87,1.25,2.92,1.7-1.05.45-2.03,1.02-2.92,1.7.07-.56.11-1.12.11-1.7s-.04-1.14-.11-1.7ZM285.22,113.15l2.26-2.26h1.78v1.8l-2.25,2.25c-.66-.53-1.26-1.13-1.79-1.79ZM287.99,115.64l2.46-2.46v-2.29h1.8l1.12,1.12-1.76,1.76v3.4c-1.3-.3-2.53-.82-3.62-1.53ZM285.94,91.71c.89.68,1.87,1.25,2.92,1.7-1.05.44-2.03,1.02-2.92,1.7.07-.56.11-1.12.11-1.7s-.04-1.14-.11-1.7ZM293.36,99.94l-1.12,1.12h-1.8v-2.26l-2.48-2.47c1.1-.71,2.32-1.24,3.64-1.54v3.4l1.76,1.76ZM303.56,103.4h-1.59l-1.76,1.76-1.12-1.12v-1.8h2.28l2.18-2.19v3.35ZM295.9,107.33l2.02.77v1.62h-1.62l-.77-2.01.37-.37ZM295.53,104.28l.78-2.04h1.61v1.64l-2.02.77-.37-.37ZM296.35,106.24v-.5l2.02-.77,1.02,1.02-1.02,1.02-2.02-.77ZM300.89,101.06h-1.8v-1.78l2.26-2.27c.66.53,1.26,1.13,1.79,1.79l-2.25,2.26ZM302.42,95.1c-.89-.68-1.87-1.25-2.91-1.69,1.04-.44,2.02-1.01,2.91-1.69-.07.55-.11,1.12-.11,1.69s.04,1.14.11,1.69ZM300.4,96.33l-2.48,2.47v2.26h-1.78l-1.12-1.12,1.76-1.76v-3.4c1.3.3,2.53.83,3.62,1.54ZM293.94,108.14h.5l.77,2.02-1.02,1.02-1.02-1.02.77-2.02ZM293.19,106.4v-.81l.58-.57h.83l.57.57v.82l-.57.57h-.83l-.58-.57ZM294.44,103.84h-.5l-.78-2.04,1.03-1.03,1.03,1.03-.78,2.04ZM295.6,97.7l-1.41,1.42-1.41-1.42v-3.12c.46-.06.93-.09,1.4-.09s.96.04,1.42.09v3.12ZM292.46,104.65l-2.02-.77v-1.64h1.63l.78,2.04-.39.38ZM292.85,107.71l-.77,2.01h-1.64v-1.62l2.02-.77.39.38ZM287,97.02l2.26,2.27v1.78h-1.78l-2.26-2.26c.53-.65,1.12-1.25,1.78-1.78ZM290,104.97l2.01.77v.5l-2.01.77-1.02-1.02,1.02-1.02ZM292.78,114.25l1.41-1.41,1.41,1.41v3.12c-.47.06-.94.09-1.42.09s-.94-.03-1.4-.09v-3.12ZM301.35,114.95l-2.25-2.25v-1.8h1.8l2.25,2.25c-.53.66-1.14,1.27-1.8,1.8ZM301.38,109.71h-2.28v-1.78l1.12-1.12,1.76,1.76h1.59v3.32l-2.18-2.19ZM303.56,107.4h-1.11l-1.41-1.42,1.41-1.41h1.11v2.83ZM302.42,69.96c-.89-.68-1.87-1.25-2.91-1.69,1.04-.44,2.02-1.01,2.91-1.69-.07.55-.11,1.12-.11,1.69s.04,1.14.11,1.69ZM295.02,61.73l1.12-1.12h1.78v2.29l2.46,2.46c-1.09.7-2.3,1.22-3.6,1.53v-3.4l-1.76-1.76ZM285.94,66.57c.89.68,1.87,1.25,2.92,1.7-1.05.44-2.03,1.02-2.92,1.7.07-.56.11-1.12.11-1.7s-.04-1.14-.11-1.7ZM285.22,62.88l2.26-2.26h1.78v1.8l-2.25,2.25c-.66-.53-1.26-1.13-1.79-1.79ZM287.99,65.36l2.46-2.46v-2.29h1.8l1.12,1.12-1.76,1.76v3.4c-1.3-.3-2.53-.82-3.62-1.53ZM285.94,41.43c.89.68,1.87,1.25,2.92,1.7-1.05.44-2.03,1.02-2.92,1.7.07-.56.11-1.12.11-1.7s-.04-1.14-.11-1.7ZM293.36,49.67l-1.12,1.12h-1.8v-2.26l-2.48-2.48c1.1-.71,2.32-1.24,3.64-1.54v3.4l1.76,1.76ZM300.38,40.22c-1.09.7-2.3,1.22-3.6,1.52v-3.4l-1.76-1.76,1.12-1.12h1.78v2.29l2.46,2.46ZM303.56,36.48l-2.18-2.18h-2.28v-1.78l1.12-1.12,1.76,1.76h1.59v3.32ZM303.56,53.12h-1.59l-1.76,1.76-1.12-1.12v-1.81h2.28l2.18-2.18v3.35ZM293.94,57.86h.5l.77,2.02-1.02,1.02-1.02-1.02.77-2.02ZM293.19,56.12v-.81l.58-.57h.83l.57.57v.82l-.57.57h-.83l-.58-.57ZM294.44,53.56h-.5l-.78-2.03,1.03-1.03,1.03,1.03-.78,2.03ZM295.02,49.67l1.76-1.76v-3.4c1.3.3,2.53.83,3.62,1.53l-2.48,2.48v2.26h-1.78l-1.12-1.12ZM302.42,44.82c-.89-.67-1.87-1.25-2.91-1.69,1.04-.44,2.02-1.02,2.91-1.69-.07.56-.11,1.12-.11,1.69s.04,1.14.11,1.69ZM303.15,48.53l-2.25,2.25h-1.8v-1.78l2.26-2.27c.66.53,1.26,1.13,1.79,1.79ZM297.92,51.96v1.64l-2.02.77-.37-.37.78-2.04h1.61ZM295.9,57.05l2.02.77v1.62h-1.62l-.77-2.01.37-.37ZM296.35,55.96v-.5l2.02-.77,1.02,1.02-1.02,1.02-2.02-.77ZM299.1,35.47h1.8l2.25,2.25c-.53.66-1.14,1.27-1.8,1.8l-2.25-2.25v-1.8ZM295.6,38.84v3.12c-.47.06-.94.09-1.42.09s-.94-.03-1.4-.09v-3.12l1.41-1.41,1.41,1.41ZM294.18,44.21c.48,0,.96.03,1.42.09v3.12l-1.41,1.41-1.41-1.41v-3.12c.46-.06.93-.09,1.4-.09ZM292.46,54.37l-2.02-.77v-1.64h1.63l.78,2.04-.39.37ZM292.85,57.43l-.77,2.01h-1.64v-1.62l2.02-.77.39.38ZM287,46.74l2.26,2.27v1.78h-1.78l-2.26-2.26c.53-.66,1.12-1.25,1.78-1.78ZM290,54.69l2.01.77v.5l-2.01.77-1.02-1.02,1.02-1.02ZM292.78,63.98l1.41-1.41,1.41,1.41v3.12c-.47.06-.94.09-1.42.09s-.94-.03-1.4-.09v-3.12ZM301.35,64.67l-2.25-2.25v-1.8h1.8l2.25,2.25c-.53.67-1.14,1.27-1.8,1.8ZM301.38,59.44h-2.28v-1.78l1.12-1.12,1.76,1.76h1.59v3.32l-2.18-2.18ZM303.56,57.13h-1.11l-1.41-1.41,1.41-1.41h1.11v2.83ZM303.56,31.99h-1.11l-1.41-1.42,1.41-1.41h1.11v2.83ZM294.67,33.33l.54,1.42-1.02,1.02-1.02-1.02.15-.39,1.35-1.03ZM291.84,35.47h.4l1.12,1.12-1.76,1.76v3.4c-1.3-.3-2.53-.82-3.62-1.53l2.46-2.46v-1.23l1.4-1.06ZM287,51.96h2.27v1.81l-1.12,1.12-1.76-1.76h-3.4c.3-1.31.83-2.54,1.54-3.64l2.47,2.47ZM285.9,54.3l1.41,1.41-1.41,1.41h-3.12c-.06-.47-.09-.94-.09-1.43s.03-.94.09-1.4h3.12ZM286.39,58.3l1.76-1.76,1.12,1.12v1.78h-2.27l-2.47,2.47c-.7-1.09-1.23-2.31-1.53-3.61h3.39ZM294.18,69.35c3.88,0,7.3,1.93,9.38,4.88v13.21c-2.08,2.95-5.51,4.88-9.38,4.88-6.33,0-11.49-5.15-11.49-11.49s5.15-11.49,11.49-11.49ZM287,102.24h2.27v1.8l-1.12,1.12-1.76-1.76h-3.4c.3-1.31.83-2.54,1.54-3.63l2.47,2.47ZM285.9,104.58l1.41,1.41-1.41,1.42h-3.12c-.06-.47-.09-.94-.09-1.43s.03-.94.09-1.4h3.12ZM286.39,108.58l1.76-1.76,1.12,1.12v1.78h-2.27l-2.47,2.47c-.7-1.09-1.23-2.31-1.53-3.61h3.39ZM271.21,51.15l12.56-9.54c.07.5.11,1.01.11,1.52,0,6.33-5.15,11.49-11.49,11.49-.4,0-.8-.02-1.19-.06v-3.41ZM280.64,57.4c-.89-.68-1.87-1.25-2.92-1.7,1.05-.45,2.03-1.02,2.92-1.7-.07.56-.11,1.12-.11,1.7s.04,1.14.11,1.7ZM271.21,56.84c.39-.04.79-.06,1.19-.06,6.33,0,11.49,5.15,11.49,11.49s-5.15,11.49-11.49,11.49c-.4,0-.8-.02-1.19-.06v-22.85ZM280.64,82.54c-.89-.68-1.87-1.25-2.92-1.7,1.05-.44,2.03-1.02,2.92-1.7-.07.56-.11,1.12-.11,1.7s.04,1.14.11,1.7ZM271.21,81.98c.39-.04.79-.06,1.19-.06,6.33,0,11.49,5.15,11.49,11.49s-5.15,11.49-11.49,11.49c-.4,0-.8-.02-1.19-.06v-22.85ZM280.64,107.68c-.89-.68-1.87-1.25-2.92-1.7,1.05-.44,2.03-1.02,2.92-1.7-.07.56-.11,1.12-.11,1.7s.04,1.14.11,1.7ZM271.21,107.12c.39-.04.79-.06,1.19-.06,6.33,0,11.49,5.16,11.49,11.49s-5.15,11.49-11.49,11.49c-.4,0-.8-.02-1.19-.06v-22.85ZM280.64,132.82c-.89-.68-1.87-1.25-2.92-1.7,1.05-.45,2.03-1.02,2.92-1.7-.07.56-.11,1.12-.11,1.7s.04,1.14.11,1.7ZM272.39,132.2c3.4,0,6.44,1.49,8.55,3.84h-9.74v-3.78c.39-.04.79-.06,1.19-.06Z"/><path class="cls-1" d="M262.14,90.39l-38.67-30.9v79.71h38.67v-48.81ZM242.37,116.85c.89.68,1.87,1.25,2.92,1.7-1.04.45-2.03,1.02-2.92,1.7.07-.56.11-1.12.11-1.7s-.04-1.14-.11-1.7ZM249.79,125.09l-1.12,1.12h-1.8v-2.26l-2.47-2.48c1.1-.71,2.32-1.24,3.63-1.54v3.4l1.76,1.76ZM258.99,128.54h-.59l-1.76,1.76-1.12-1.12v-1.8h2.28l1.18-1.18v2.34ZM258.99,136.04l-1.18-1.18h-2.28v-1.78l1.12-1.12,1.76,1.76h.59v2.31ZM250.34,136.05l-.74-.75.77-2.02h.5l.77,2.02-.75.75h-.55ZM248.45,130.88v.5l-2.02.77-1.02-1.02,1.02-1.02,2.02.77ZM246.87,129.02v-1.64h1.63l.78,2.04-.39.38-2.02-.77ZM246.87,133.24l2.02-.77.39.38-.77,2.01h-1.64v-1.62ZM250.87,128.98h-.5l-.78-2.03,1.03-1.03,1.03,1.03-.78,2.03ZM251.61,130.72v.82l-.57.57h-.83l-.58-.57v-.82l.58-.57h.83l.57.57ZM254.35,129.02l-2.01.77-.38-.37.78-2.04h1.61v1.64ZM254.8,130.11l1.02,1.02-1.02,1.02-2.02-.77v-.5l2.02-.77ZM252.34,132.47l2.01.77v1.62h-1.62l-.77-2.01.38-.37ZM258.99,124.54l-1.66,1.66h-1.8v-1.78l2.27-2.27c.44.36.81.78,1.19,1.2v1.18ZM258.85,120.24c-.89-.68-1.87-1.25-2.91-1.69,1.04-.44,2.02-1.01,2.91-1.69-.07.55-.11,1.11-.11,1.69s.04,1.14.11,1.69ZM256.83,121.46l-2.47,2.48v2.26h-1.78l-1.12-1.12,1.76-1.76v-3.4c1.31.3,2.53.83,3.62,1.53ZM252.04,122.84l-1.41,1.42-1.41-1.42v-3.12c.46-.06.93-.09,1.4-.09s.96.03,1.42.09v3.12ZM243.43,122.16l2.27,2.27v1.78h-1.79l-2.26-2.26c.53-.66,1.12-1.25,1.78-1.78ZM243.43,127.38h2.27v1.8l-1.12,1.12-1.76-1.76h-3.4c.3-1.31.83-2.54,1.54-3.64l2.47,2.47ZM242.34,129.72l1.42,1.42-1.42,1.41h-3.12c-.06-.47-.09-.94-.09-1.42s.03-.94.09-1.4h3.12ZM239.43,133.72h3.39l1.76-1.76,1.12,1.12v1.78h-2.27l-1.19,1.19h-1.97c-.35-.74-.66-1.51-.85-2.32ZM258.99,132.54h-.1l-1.41-1.41,1.41-1.42h.1v2.83ZM258.99,113.82c-2.1,2.24-5.07,3.65-8.38,3.65-6.33,0-11.48-5.15-11.48-11.49s5.15-11.49,11.48-11.49c3.31,0,6.28,1.41,8.38,3.65v15.67ZM237.07,107.68c-.89-.68-1.87-1.25-2.92-1.7,1.05-.44,2.02-1.02,2.92-1.7-.07.56-.11,1.12-.11,1.7s.04,1.14.11,1.7ZM229.66,99.44l1.12-1.12h1.78v2.29l2.46,2.46c-1.09.7-2.3,1.22-3.6,1.53v-3.4l-1.76-1.76ZM226.63,86.01l1.37,1.37-1.12,1.12h-.25v-2.49ZM236.62,90.83l-1.76,1.76-1.12-1.12v-1.8h2.28l2.46-2.46c.7,1.1,1.23,2.32,1.53,3.63h-3.4ZM240.22,92.01c.06.46.09.93.09,1.4s-.03.96-.09,1.43h-3.12l-1.41-1.41,1.41-1.42h3.12ZM230.55,94.76l2.02.77v1.62h-1.62l-.77-2.01.38-.37ZM230.17,91.71l.78-2.04h1.61v1.64l-2.02.77-.38-.37ZM230.99,93.67v-.5l2.01-.77,1.02,1.02-1.02,1.02-2.01-.77ZM235.54,88.5h-1.79v-1.78l2.26-2.26c.66.53,1.26,1.13,1.78,1.79l-2.25,2.25ZM237.07,82.54c-.89-.68-1.87-1.25-2.92-1.7,1.05-.44,2.02-1.02,2.92-1.7-.07.56-.11,1.12-.11,1.7s.04,1.14.11,1.7ZM235.04,83.76l-2.47,2.47v2.26h-1.78l-1.12-1.12,1.76-1.76v-3.4c1.3.3,2.52.82,3.62,1.53ZM228.58,95.57h.5l.77,2.02-1.02,1.02-1.02-1.02.77-2.02ZM227.84,93.83v-.81l.58-.57h.83l.57.57v.82l-.57.57h-.83l-.58-.57ZM229.08,91.27h-.5l-.78-2.04,1.03-1.03,1.03,1.03-.78,2.04ZM230.25,85.13l-1.41,1.41-1.41-1.41v-3.12c.46-.06.93-.09,1.41-.09s.96.03,1.42.09v3.12ZM226.71,89.67l.78,2.04-.38.37-.47-.18v-2.23h.08ZM226.63,94.94l.47-.18.38.38-.77,2.01h-.09v-2.21ZM226.63,98.32h.25l1.12,1.12-1.37,1.37v-2.49ZM227.42,101.69l1.41-1.42,1.41,1.42v3.12c-.47.06-.94.09-1.42.09s-.94-.03-1.41-.09v-3.12ZM235.99,102.38l-2.25-2.25v-1.81h1.79l2.26,2.25c-.53.67-1.14,1.27-1.8,1.8ZM236.03,97.15h-2.28v-1.78l1.12-1.12,1.76,1.76h3.4c-.3,1.3-.82,2.51-1.52,3.6l-2.46-2.46ZM242.37,91.71c.89.68,1.87,1.25,2.92,1.7-1.04.44-2.03,1.02-2.92,1.7.07-.56.11-1.12.11-1.7s-.04-1.14-.11-1.7ZM258.85,91.79c-.06.53-.1,1.07-.1,1.62s.04,1.14.11,1.69c-.89-.68-1.87-1.25-2.91-1.69,1.02-.43,1.98-1,2.86-1.66l.04.04ZM257.05,90.35c-1.84,1.25-4.05,1.98-6.44,1.98-6.33,0-11.48-5.15-11.48-11.49,0-1.47.29-2.88.8-4.17l17.12,13.68ZM226.63,66.04l11.38,9.1c-2.1,2.8-5.43,4.62-9.19,4.62-.75,0-1.48-.08-2.19-.22v-13.5ZM226.63,107.28c.71-.14,1.44-.22,2.19-.22,6.33,0,11.49,5.16,11.49,11.49s-5.15,11.49-11.49,11.49c-.75,0-1.48-.08-2.19-.22v-22.54ZM237.07,132.82c-.89-.68-1.87-1.25-2.92-1.7,1.05-.45,2.02-1.02,2.92-1.7-.07.56-.11,1.12-.11,1.7s.04,1.14.11,1.7ZM228.83,132.2c3.4,0,6.45,1.49,8.55,3.84h-10.74v-3.63c.71-.14,1.44-.22,2.19-.22Z"/></svg>