<?xml version="1.0" encoding="UTF-8"?><svg id="Artwork" xmlns="http://www.w3.org/2000/svg" viewBox="0 0 576 364"><defs><style>.cls-1{fill:#fff;stroke-width:0px;}</style></defs><path class="cls-1" d="M200.49,213.01c-2.5,0-5,0-7.5.1l.05-1.51c.73,0,3.34.1,3.34-1.09,0-.94-1.3-2.03-1.88-2.71-2.5-2.76-5-5.42-7.5-8.18-.57-.62-1.93-2.34-2.76-2.55-.16-.05-.31-.05-.47-.05-.47,0-.94,0-1.41.05v10.47c0,.88,0,1.93.52,2.66.88,1.2,3.07,1.3,4.48,1.41v1.51c-2.87-.05-5.78-.1-8.65-.1-2.09,0-4.22,0-6.31.1v-1.51c1.25-.16,3.49,0,4.33-1.09.68-.89.52-3.65.52-4.79.05-4.27.1-8.55.1-12.82,0-1.98.26-10.32-.68-11.46-.83-.99-3.34-.83-4.53-.99v-1.51h15.27v1.51c-1.3.1-3.13-.21-4.22.63-1.04.78-.73,3.65-.78,4.85,0,.73-.05,1.62-.05,2.35,0,2.45.05,4.9.05,7.35h.36c2.5,0,4.17-2.34,5.73-4.06,1.51-1.67,7.19-7.55,7.19-9.54,0-1.51-2.71-1.41-3.75-1.56v-1.51h13.45v1.51c-4.64.26-4.53.63-7.71,3.7-1.61,1.56-3.13,3.39-4.69,5-1.56,1.62-2.97,3.39-4.53,5.06,1.77,1.72,3.44,3.65,5.11,5.47,2.29,2.45,4.58,4.9,6.88,7.35.83.89,3.07,3.23,4.01,3.8.94.57,1.62.63,2.71.78v1.51c-2.24-.1-4.43-.1-6.67-.1Z"/><path class="cls-1" d="M219.33,213.79c-5.89,0-10.47-5.37-10.47-11.05,0-3.65,1.15-7.3,3.75-9.9,1.77-1.77,4.48-3.02,7.04-3.02,4.69,0,8.49,3.34,8.75,8.08-5.11.21-10.16.42-15.27.42-.1.52-.1,1.04-.1,1.56v.78c0,5,3.55,9.53,8.81,9.53,2.35,0,4.74-1.72,6.25-3.39l.78.68c-1.82,3.23-5.68,6.31-9.54,6.31ZM222.93,193.47c-.88-1.67-2.4-2.34-4.22-2.34-3.08,0-4.85,3.34-5.32,5.99,3.49-.05,6.88-.21,10.32-.83,0-.94-.31-1.98-.78-2.81Z"/><path class="cls-1" d="M260.11,213.11v-1.3c.99,0,3.18-.16,3.86-.99.57-.73.52-2.14.57-3.02.1-2.29.31-4.59.31-6.88,0-1.82-.1-3.75-.78-5.47-.68-1.67-2.97-2.55-4.64-2.55-2.03,0-3.8.88-5.42,2.03.1.62.1,1.3.1,1.93,0,4.12-.05,8.23-.05,12.35,0,.52.05,1.09.31,1.56.47.94,2.71.99,3.6,1.04v1.3h-12.3v-1.3c.94-.05,3.39-.1,3.86-1.09.42-.94.42-5.47.42-6.72,0-1.62,0-3.23-.05-4.85-.05-1.3,0-2.66-.42-3.91-.57-1.67-2.97-2.61-4.64-2.61-2.14,0-3.75.88-5.47,2.03-.16.1-.26.16-.26.42v13.44c0,.57,0,1.67.31,2.19.62,1.09,2.76,1.04,3.85,1.15v1.25h-12.35v-1.3c3.18-.21,3.86,0,3.86-3.44,0-4.85-.05-9.64-.05-14.49-1.15-.57-2.34-1.2-3.54-1.56v-.68l7.92-2.97v5c1.09-.63,2.03-1.51,3.07-2.19,1.82-1.2,3.44-2.24,5.68-2.24,1.77,0,3.91,1.41,4.85,2.87.42.63.73,1.3.99,1.98,2.81-2.03,4.85-4.64,8.65-4.64,1.88,0,3.8,1.51,4.9,2.92,1.61,2.09,1.93,4.59,1.93,7.14,0,3.13-.42,6.31-.42,9.43s1.46,2.55,3.96,2.87v1.3h-12.61Z"/><path class="cls-1" d="M285.18,212.91l-1.36.05c-.68.05-1.36,0-2.03-.1-.05,1.82-.05,3.65-.05,5.47,0,1.3-.05,2.66.05,3.91.21,2.5,2.71,1.88,4.43,2.19v1.3h-12.71v-1.25c1.88-.16,4.06-.21,4.06-2.66v-27.93c-1.09-.62-2.34-1.15-3.54-1.56v-.68c2.55-1.04,5.06-2.08,7.66-2.97v.94c0,1.15.05,2.19.05,3.34,2.09-1.25,4.69-3.28,7.19-3.28,2.97,0,5.94,1.67,7.82,3.91,1.41,1.67,2.4,4.79,2.4,6.93,0,7.35-7.09,12.14-13.96,12.4ZM289.24,193.31c-.83-.36-1.98-.68-2.87-.68-1.82,0-3.18.68-4.64,1.67v13.5c1.25,2.19,3.44,3.65,5.99,3.65.99,0,1.88-.31,2.71-.78,3.08-1.82,4.27-5.47,4.27-8.86,0-3.91-1.88-6.98-5.47-8.49Z"/><path class="cls-1" d="M308.94,213.01h-2.14c-1.98,0-3.85.05-5.84.1v-1.3c4.01-.36,4.17-.36,4.17-4.59v-12.35c0-.16,0-.36-.15-.47-.68-.36-2.71-1.25-3.49-1.61v-.52l7.92-3.13v18.34c0,4.01.36,3.96,4.22,4.33v1.3c-1.56-.05-3.13-.1-4.69-.1ZM307.06,185.08c-1.46,0-2.71-1.15-2.71-2.66s1.25-2.66,2.71-2.66,2.71,1.15,2.71,2.66-1.25,2.66-2.71,2.66Z"/><path class="cls-1" d="M331.1,213.11v-1.3c.99,0,3.23-.16,3.91-.99.57-.73.52-2.14.57-3.02.1-2.4.26-4.74.26-7.14,0-1.82-.05-3.75-.78-5.47-.68-1.67-2.97-2.55-4.64-2.55-1.93,0-3.96.88-5.42,2.14-.26.21-.26.36-.26.68-.21,4.17,0,8.44,0,12.61,0,3.6,1.04,3.34,4.06,3.75v1.3h-12.4v-1.3c1.2-.1,3.34-.05,3.8-1.51.21-.73.16-5.68.16-6.67v-9.75c-1.15-.62-2.35-1.04-3.55-1.56v-.68l7.92-2.97v5c1.09-.63,2.03-1.61,3.07-2.29,1.82-1.2,3.44-2.14,5.63-2.14,1.77,0,3.75,1.51,4.79,2.87,1.61,2.09,1.93,4.59,1.93,7.14,0,3.23-.42,6.46-.42,9.69s1.46,2.55,3.96,2.87v1.3h-12.61Z"/><path class="cls-1" d="M359.49,211.76c-1.51,1.36-4.01,2.03-5.99,2.03s-3.86-.31-5.73-.78c-.26-1.93-.57-3.91-.83-5.84l1.41-.31c1.25,2.35,2.19,5.68,5.42,5.68,2.14,0,4.22-1.36,4.22-3.65,0-6.36-10.79-5.52-10.79-12.82,0-3.91,3.85-6.36,7.45-6.36,1.56,0,2.92.31,4.43.63.1,0,.26.05.36.05.42,0,.83-.16,1.2-.31.36,1.93.68,3.91.88,5.89l-1.3.31c-1.04-2.4-2.76-5.31-5.73-5.31-2.29,0-3.8,1.3-3.8,3.65,0,2.19,1.36,2.92,2.97,3.96,3.34,2.24,7.97,3.6,7.97,8.49,0,1.51-1.04,3.65-2.14,4.69Z"/><path class="cls-1" d="M364.34,213.11v-1.3c1.04-.05,3.13.21,3.44-1.09.26-1.09.26-2.45.26-3.6.1-6.93.16-13.76.16-20.69,0-2.5-.05-4.95-.05-7.45-1.09-.57-2.08-1.25-3.23-1.67v-.36c2.5-1.15,5.06-2.24,7.61-3.39v.52c0,3.07-.1,6.1-.15,9.17-.11,7.24-.21,14.54-.21,21.78v3.44c0,3.34.89,3.28,3.75,3.44v1.2h-11.57ZM378.25,213.11v-1.2c.78,0,2.87.05,2.87-1.09,0-.83-5.84-6.82-6.88-7.82-.68-.63-1.36-1.2-2.03-1.82,2.14-1.3,4.22-2.97,5.99-4.74.57-.57,2.66-2.66,2.66-3.44,0-1.09-2.14-1.25-2.87-1.3v-1.3h10.79v1.3c-2.5.15-4.06.99-6.04,2.55-2.19,1.72-4.27,3.6-6.41,5.37,2.66,2.87,5.26,5.73,8.03,8.49.99.99,2.03,2.14,3.13,3.07.73.57,1.51.63,2.4.63v1.3h-11.62Z"/><path class="cls-1" d="M400.39,213.01h-2.14c-1.98,0-3.85.05-5.84.1v-1.3c4.01-.36,4.17-.36,4.17-4.59v-12.35c0-.16,0-.36-.15-.47-.68-.36-2.71-1.25-3.49-1.61v-.52l7.92-3.13v18.34c0,4.01.36,3.96,4.22,4.33v1.3c-1.56-.05-3.13-.1-4.69-.1ZM398.52,185.08c-1.46,0-2.71-1.15-2.71-2.66s1.25-2.66,2.71-2.66,2.71,1.15,2.71,2.66-1.25,2.66-2.71,2.66Z"/><path class="cls-1" d="M159.27,244.33c-.21-1.3-.78-4.17-1.67-5.06-1.72-1.72-4.85-1.77-7.14-1.77-.89,0-1.67,0-2.55.05-.1,8.55-.21,17.14-.21,25.69,0,4.74,2.03,4.69,6.04,5.11v1.56h-16.88l.05-1.56c1.51-.21,3.8,0,4.79-1.46.68-1.04.68-3.49.68-4.74,0-4.58.1-9.22.1-13.81v-10.73h-3.18c-.88,0-1.82,0-2.71.05-3.49.21-5,3.8-6.2,6.62-.52-.1-.99-.26-1.51-.42l2.45-9.69.78.1c.88,1.56,2.24,1.67,3.85,1.67h20.64c1.56,0,2.34-.47,3.23-1.72l.73.1c.31,3.28.31,6.57.31,9.85-.52.1-1.09.16-1.61.16Z"/><path class="cls-1" d="M178.55,269.91v-1.3c.88-.05,3.02-.05,3.49-.94.57-1.15.68-6.15.68-7.61,0-4.27.47-10.47-5.52-10.47-1.72,0-3.91,1.15-5.31,2.08v13.34c0,3.91.83,3.18,4.01,3.6v1.3h-11.88v-1.3c1.04-.1,3.34-.05,3.65-1.36.21-.83.1-1.82.1-2.71,0-9.28.05-18.5.05-27.78v-1.04c-1.04-.57-2.19-1.2-3.28-1.61v-.36l7.61-3.39v.36c0,5.99-.21,12.04-.21,18.03v1.72c2.82-2.03,4.27-3.96,8.08-3.96,1.56,0,3.28.89,4.38,1.98,2.66,2.66,2.61,5.84,2.61,9.38,0,2.71-.31,5.37-.31,8.03,0,3.02,1.46,2.45,3.8,2.71v1.3h-11.93Z"/><path class="cls-1" d="M203.13,270.59c-5.89,0-10.47-5.37-10.47-11.05,0-3.65,1.15-7.3,3.75-9.9,1.77-1.77,4.48-3.02,7.04-3.02,4.69,0,8.49,3.34,8.75,8.08-5.11.21-10.16.42-15.27.42-.1.52-.1,1.04-.1,1.56v.78c0,5,3.54,9.53,8.81,9.53,2.35,0,4.74-1.72,6.25-3.39l.78.68c-1.82,3.23-5.68,6.31-9.54,6.31ZM206.72,250.27c-.88-1.67-2.4-2.34-4.22-2.34-3.08,0-4.85,3.34-5.32,5.99,3.49-.05,6.88-.21,10.32-.83,0-.94-.31-1.98-.78-2.81Z"/><path class="cls-1" d="M253.23,268.14c-3.65,1.77-6.51,1.77-10.47,1.77h-14.33v-1.46c1.72-.26,3.91.1,5.21-1.3,1.04-1.2.84-6.31.84-8.02,0-5.58-.11-11.15-.11-16.73,0-1.15,0-3.39-.68-4.33-.88-1.2-2.97-1.09-4.33-1.2l.05-1.46c2.19.1,4.33.15,6.51.15,2.66,0,5.32-.21,7.97-.21.63,0,1.3,0,1.93.05,4.53.26,9.33,2.81,9.33,7.92,0,4.12-4.22,6.72-7.76,7.66v.05c5.16.57,10.89,3.8,10.89,9.64,0,3.08-2.35,6.15-5.06,7.45ZM242.6,236.93c-1.09,0-2.14-.05-3.23.05,0,1.98-.1,3.96-.1,5.94v1.56c0,2.08.1,4.17.1,6.25.16.05.36.05.52.05,2.87,0,6.57-.47,8.44-2.82.94-1.15,1.51-2.4,1.51-3.91,0-3.96-3.28-7.14-7.24-7.14ZM240.2,252.04c-.26,0-.57,0-.83.05-.05.62-.05,1.3-.05,1.93,0,4.38.05,8.76.05,13.13,0,.36.05.68.05,1.04,1.04.21,2.14.31,3.23.31,2.34,0,4.64-.16,6.62-1.62,1.88-1.41,2.92-3.49,2.92-5.84,0-6.82-6.15-9.01-11.99-9.01Z"/><path class="cls-1" d="M283.73,266.63c-2.19,2.24-5.84,3.96-8.96,3.96-6.83,0-12.19-5.52-12.19-12.3,0-6.15,6.31-11.62,12.3-11.62,2.76,0,5.73,1.25,7.92,2.92,2.66,2.08,4.33,5.42,4.33,8.81,0,2.97-1.3,6.1-3.39,8.23ZM280.13,251.26c-1.2-1.77-3.08-3.13-5.26-3.13-1.15,0-2.29.36-3.23.99-3.07,1.93-4.12,5.73-4.12,9.17,0,4.43,2.35,10.84,7.71,10.84,4.85,0,6.93-6.46,6.93-10.42,0-2.61-.57-5.26-2.03-7.45Z"/><path class="cls-1" d="M307.78,270.85l-.26-.21c-.05-1.04-.21-2.14-.21-3.18,0-.21-.05-.31-.21-.47-.05,0-.05-.05-.1-.05-.47,0-4.95,3.7-8.13,3.7-5.99,0-6.31-6.57-6.31-11,0-2.76.21-5.52.21-8.28,0-2.5-1.51-2.19-3.39-2.61v-1.04c2.55-.42,5.11-.68,7.66-.94,0,5.21.05,10.37.05,15.58,0,3.18.78,5.58,4.43,5.58,1.82,0,4.53-1.56,5.73-2.92.05-4.58.1-9.17.1-13.76,0-.52,0-.78-.36-1.2-.47-.47-3.13-1.04-3.91-1.2v-.94c2.82-.36,5.63-.63,8.44-.89,0,6.1-.11,12.19-.11,18.29,0,.52.05,1.04.11,1.56.88.42,2.66.52,3.7.68v.94l-7.45,2.34Z"/><path class="cls-1" d="M317.91,269.91v-1.3c1.09-.1,3.18.05,3.75-1.15.36-.83.31-3.02.31-4.01,0-7.97.11-15.95.11-23.92,0-1.3,0-2.61-.11-3.91-1.04-.47-2.08-1.04-3.13-1.51v-.36c2.55-1.04,5.05-2.24,7.61-3.39v.52c0,10.63-.31,21.31-.31,31.94,0,.88,0,3.85.31,4.58.57,1.25,3.13,1.15,4.33,1.2v1.3h-12.87Z"/><path class="cls-1" d="M342.8,270.59c-5.89,0-10.47-5.37-10.47-11.05,0-3.65,1.15-7.3,3.75-9.9,1.77-1.77,4.48-3.02,7.04-3.02,4.69,0,8.49,3.34,8.75,8.08-5.11.21-10.16.42-15.27.42-.1.52-.1,1.04-.1,1.56v.78c0,5,3.55,9.53,8.81,9.53,2.35,0,4.74-1.72,6.25-3.39l.78.68c-1.82,3.23-5.68,6.31-9.54,6.31ZM346.39,250.27c-.88-1.67-2.4-2.34-4.22-2.34-3.08,0-4.85,3.34-5.32,5.99,3.49-.05,6.88-.21,10.32-.83,0-.94-.31-1.98-.78-2.81Z"/><path class="cls-1" d="M374.39,252.14c-2.19,4.27-4.22,8.65-6.25,12.98-.83,1.77-1.46,3.6-1.98,5.47l-1.3.1c-.47-2.29-1.61-4.43-2.45-6.62-1.25-3.28-2.61-6.46-3.91-9.69-.63-1.56-1.25-3.28-2.09-4.74-.57-.99-1.67-1.09-2.71-1.15v-1.3h11.62v1.25c-1.2.16-3.75,0-3.75,1.82,0,.89,3.28,9.12,3.8,10.42.52,1.3.99,2.66,1.51,3.96.99-1.72,5.99-12.77,5.99-14.17,0-1.77-2.61-1.93-3.86-2.03v-1.25h9.59v1.3c-2.24,0-3.34,1.88-4.22,3.65Z"/><path class="cls-1" d="M395.34,270.49c-1.46,0-2.19-2.4-2.61-3.49-2.09,1.09-6.83,3.55-9.17,3.55s-2.66-2.97-2.66-4.74c0-2.45.26-3.86,2.66-4.95,2.55-1.2,6.36-1.98,9.17-2.92,0,0,.05-2.82.05-3.8,0-2.71-.78-5.26-4.69-5.26-2.03,0-2.87.78-3.34,1.67-.26.42-.36,1.82-.42,3.13l-4.17-.05c-.16-.89.31-1.46.73-1.88,1.15-1.2,4.33-3.49,5.78-4.33,1.09-.63,2.66-1.36,3.96-1.36,4.38,0,6.25,3.96,6.25,6.67v10.63c0,1.36-.31,3.7,1.67,3.7.78,0,1.82-.57,2.5-.94l.47.78c-1.2.99-4.74,3.6-6.2,3.6ZM392.73,259.23c-1.93.47-6.25,1.41-7.5,3.18-.42.57-.63,1.36-.63,2.03,0,1.56,1.51,3.28,3.13,3.28s3.65-1.25,5-2.03v-6.46Z"/><path class="cls-1" d="M419.95,252.14c-1.09-.57-3.08-1.77-4.33-1.77-1.88,0-3.75,2.03-3.75,3.91v11.15c0,.68.11,1.35.47,1.93.68,1.04,3.44,1.15,4.59,1.25v1.3h-13.39v-1.3c1.98-.1,4.01-.05,4.01-2.66v-15.06c-1.15-.57-2.35-1.15-3.55-1.56v-.68c2.55-.99,5.26-1.88,7.82-2.86v5.52c.68-.78,1.35-1.51,2.03-2.29,1.2-1.35,2.5-2.71,4.43-2.71,1.2,0,2.92,1.3,3.54,2.29-.57,1.2-1.2,2.4-1.88,3.54Z"/><path class="cls-1" d="M440.73,271.01l-.21.05c-.05-1.51-.1-3.02-.1-4.53-.88.57-5.78,3.34-6.62,3.55-.47.1-.89.15-1.36.15-1.77,0-3.8-.78-5.21-1.82-2.81-2.09-4.33-5.37-4.33-8.81,0-.26-.05-.63,0-.89.68-5.47,4.01-9.12,9.17-10.84,1.41-.47,3.08-.83,4.59-.83,1.25,0,2.5.05,3.75.1-.15-3.44,0-6.93,0-10.37v-1.04c-1.09-.47-2.08-1.15-3.23-1.56v-.47c2.55-.99,5-2.29,7.56-3.34v.52c0,11.46-.31,22.98-.31,34.44,0,.42,0,1.3.21,1.67.26.47,3.13.47,3.7.52v1.09c-2.55.73-5,1.77-7.61,2.4ZM440.37,251.73c-1.36-1.56-3.54-3.18-5.73-3.18-5.06,0-7.4,5.06-7.4,9.49s3.28,8.96,8.13,8.96c1.61,0,3.7-.99,5-1.88.05-2.34.1-4.64.1-6.98,0-2.14-.05-4.27-.1-6.41Z"/><path class="cls-1" d="M262.54,336.17c0,5.31-4.43,7.66-8.45,7.66h-5.45v-15.32h5.45c4.04,0,8.45,2.02,8.45,7.66ZM259.45,336.17c0-4.23-3.02-5.11-5.8-5.11h-2.17v10.21h2.17c2.82,0,5.8-1.16,5.8-5.1Z"/><path class="cls-1" d="M274.68,344.21c-3.53,0-6.19-2.25-6.19-6.04v-9.66h2.86v9.56c0,1.57.78,3.51,3.33,3.51s3.31-1.96,3.31-3.51v-9.56h2.86v9.66c0,3.84-2.8,6.04-6.17,6.04Z"/><path class="cls-1" d="M293.41,328.53c2.02.02,2.57.04,3.31.24,1.53.47,2.69,1.84,2.69,3.49,0,1.41-.77,2.9-2.57,3.17,1.7.31,3.27,1.7,3.27,4.04,0,1.76-.86,3.31-2.73,3.96-.96.37-1.72.39-3.45.39h-5.98v-15.29h5.47ZM290.8,334.59h2.96c1.82,0,2.7-.55,2.7-1.68,0-1.41-1.1-1.9-2.74-1.9h-2.92v3.57ZM290.8,341.33h3.71c1.67,0,2.65-.59,2.65-2.1,0-1.41-.98-2.35-3.27-2.35h-3.1v4.45Z"/><path class="cls-1" d="M304.49,343.82l6.51-15.32h2.72l6.45,15.32h-3.27l-1.35-3.47h-6.53l-1.35,3.47h-3.18ZM309.98,337.9h4.61l-2.31-5.88-2.31,5.88Z"/><path class="cls-1" d="M325.73,328.51h2.86v15.32h-2.86v-15.32Z"/><rect class="cls-1" x="197.8" y="302.97" width="181.63" height="2.17"/><path class="cls-1" d="M335.43,131.15c-.16-19.45-.32-39.56-1.81-59h-.65c-.46,5.74-.82,12.03-1.1,19.22-4.2,1.44-8.78,4.88-13.3,9.99-4.16-4.69-8.69-8.34-13.12-10.58-.08-2.06-.16-4.12-.24-6.18-.27-6.59-.54-13.4-.63-20.03.99-14.04,1.62-29.07-.39-43.92-.02-.26-.23-.45-.5-.45s-.48.19-.5.43c-.86,6.33-1.29,13.08-1.31,20.64-5.44,4.46-9.79,10.5-13.26,18.45-3.47-7.95-7.82-14-13.26-18.45-.03-7.56-.46-14.31-1.31-20.62-.02-.25-.24-.45-.5-.45s-.48.19-.5.43c-2.01,14.85-1.38,29.89-.39,43.91-.09,6.65-.36,13.46-.63,20.05-.08,2.06-.17,4.12-.24,6.17-4.44,2.25-8.97,5.91-13.14,10.61-4.27-4.68-8.88-8.21-13.36-10.22-.26-7.01-.53-13.17-.84-18.82,0-.27-.22-.47-.5-.48h0c-.28,0-.49.2-.5.47-.29,5.21-.59,10.8-.77,16.33-.64,17.67-.94,33.7-.94,48.99,0,1.18.94,2.14,2.12,2.19.03,0,.06,0,.08,0,1.01,0,1.88-.71,2.11-1.72,3.07-5.44,7.59-10.72,12.77-14.91,5.37,4.34,10.01,9.81,13.07,15.43.36.67,1.07,1.09,1.83,1.09s1.46-.42,1.83-1.09c3.06-5.61,7.69-11.08,13.07-15.43,5.37,4.34,10.01,9.81,13.07,15.43.36.67,1.07,1.09,1.83,1.09s1.46-.42,1.83-1.09c3.06-5.62,7.7-11.09,13.07-15.43,5.17,4.18,9.7,9.46,12.76,14.89.22,1.02,1.08,1.73,2.11,1.74h0c1.21,0,2.2-.98,2.21-2.2l-.06-6.5ZM325.28,117.72c1.52,3.11,2.77,6.24,3.71,9.33-2.19-2.62-4.61-5.03-7.2-7.21,1.18-.79,2.35-1.5,3.49-2.12ZM331.19,115.27c-.02,1.83-.04,3.65-.06,5.47-.67-1.6-1.4-3.18-2.18-4.71.8-.31,1.54-.56,2.24-.76ZM331.25,110.97c-1.41.32-2.85.78-4.29,1.36-1.98-3.42-4.21-6.67-6.64-9.65,3.65-4.64,7.48-8.3,11.41-10.87-.22,5.92-.38,12.2-.48,19.17ZM323.34,114.03c-1.66.88-3.34,1.93-5.01,3.11-1.75-1.24-3.53-2.34-5.31-3.27,1.5-2.8,3.19-5.54,5.02-8.15,1.97,2.75,3.75,5.54,5.3,8.3ZM314.85,119.83c-2.72,2.28-5.25,4.83-7.52,7.59,1.01-3.28,2.29-6.57,3.82-9.82,1.19.63,2.43,1.38,3.7,2.23ZM307.95,116.13c-.92,1.79-1.76,3.59-2.5,5.35.11-1.95.18-3.98.24-6.14.7.21,1.45.47,2.26.79ZM305.46,92.75c2.69,1.68,5.28,3.98,8.11,7.19.85,1.03,1.74,2.14,2.64,3.32-2.23,2.82-4.33,5.91-6.24,9.18-1.41-.58-2.83-1.05-4.21-1.39.05-5.32-.04-11-.3-18.3ZM296.25,117.32c1.68,3.6,2.99,7.25,3.91,10.89-2.42-3.04-5.21-5.91-8.16-8.39,1.42-.95,2.84-1.79,4.25-2.5ZM288.44,104.47c2.21,2.91,4.2,5.98,5.92,9.14-1.93.97-3.89,2.16-5.84,3.55-1.96-1.39-3.94-2.59-5.89-3.57,1.72-3.25,3.67-6.31,5.81-9.11ZM285.05,119.83c-2.91,2.44-5.67,5.27-8.06,8.26.93-3.62,2.2-7.24,3.81-10.77,1.4.71,2.83,1.55,4.26,2.51ZM296.92,95.73c.38,2.32.74,4.64,1.1,6.95.45,2.88.91,5.85,1.4,8.75v.09c-1.07.34-2.17.76-3.28,1.25-.6-1-1.2-2-1.81-2.99h0c-1.34-1.97-2.99-4.39-4.74-6.73,2.31-2.83,4.77-5.29,7.33-7.32ZM277.62,111.43c.49-2.89.95-5.84,1.4-8.7.37-2.38.74-4.75,1.13-7.13,1.39,1.13,2.78,2.42,4.14,3.86,1.07,1.17,2.12,2.4,3.12,3.67-2.26,2.93-4.44,6.17-6.5,9.64-1.11-.49-2.22-.91-3.31-1.25v-.08ZM292.37,97.27l-.96.96c-.93,1.05-1.81,2.16-2.66,3.24l-.19.24c-2.77-3.56-5.4-6.31-8.03-8.41.96-5.48,2.37-12.61,4.79-19.45,1.05-2.31,2.12-4.63,3.19-6.9,1.07,2.26,2.14,4.58,3.18,6.87,2.44,6.88,3.85,14.03,4.81,19.52-1.48,1.27-2.89,2.68-4.14,3.93ZM283.65,73.22c-2.5,6.83-4.41,12.57-5.99,18.04-.84-.51-1.64-.95-2.44-1.32-.08-2.16-.17-4.33-.25-6.49-.26-6.47-.52-13.17-.62-19.7.4-5.73.86-13.2.93-20.82,3.92,5.87,7.59,12.37,11.49,20.36-1.12,3.03-2.14,6.28-3.11,9.93ZM275.3,92.35c.57.3,1.15.64,1.76,1.02-.56,2.01-1.08,4.05-1.56,6.08-.05-2.28-.12-4.62-.2-7.11ZM278.8,116.38c-.97,1.81-1.91,3.67-2.79,5.56.31-2.1.64-4.19.96-6.24.67.23,1.27.45,1.83.69ZM300.08,115.69v.07c.33,2.04.65,4.07.95,6.11-.82-1.79-1.74-3.61-2.79-5.49.57-.24,1.17-.46,1.84-.69ZM300.02,93.51c.56-.36,1.14-.7,1.72-1.02-.08,2.45-.15,4.75-.2,6.96-.46-1.96-.97-3.95-1.52-5.94ZM301.83,89.83c-.79.34-1.61.79-2.47,1.36-1.57-5.44-3.48-11.16-5.96-17.94-.98-3.65-2-6.91-3.12-9.95,3.91-8,7.58-14.5,11.49-20.37.07,7.62.53,15.09.93,20.79-.1,6.52-.36,13.18-.62,19.62-.08,2.16-.17,4.33-.25,6.49ZM271.59,121.19c-.7-1.69-1.49-3.4-2.36-5.11.77-.3,1.48-.55,2.14-.74.06,2.06.13,3.99.23,5.85ZM271.29,111.06c-1.35.33-2.72.77-4.08,1.33-1.92-3.3-4.08-6.41-6.4-9.25,3.48-4.38,7.1-7.82,10.78-10.25-.25,7.23-.34,12.88-.29,18.17ZM265.95,117.57c1.66,3.4,3,6.79,4,10.12-2.33-2.86-4.93-5.5-7.75-7.86,1.28-.86,2.54-1.62,3.75-2.26ZM264.02,113.88c-1.78.93-3.55,2.03-5.3,3.26-1.68-1.19-3.38-2.25-5.07-3.15,1.56-2.89,3.32-5.69,5.22-8.33,1.91,2.72,3.64,5.48,5.15,8.21ZM248.09,116.03c-.77,1.52-1.49,3.08-2.16,4.67-.02-1.24-.04-2.48-.06-3.73l-.03-1.71c.7.2,1.45.45,2.25.76ZM255.26,119.83c-2.55,2.14-4.93,4.52-7.1,7.09.95-3.06,2.16-6.15,3.62-9.21,1.15.62,2.32,1.33,3.49,2.11ZM254.34,99.67c.74.91,1.51,1.9,2.37,3.03-2.42,2.99-4.65,6.22-6.62,9.63-1.45-.58-2.9-1.04-4.33-1.36-.13-6.92-.3-13.24-.52-19.3,3.08,1.88,5.98,4.44,9.09,8.01Z"/></svg>